<svg xmlns="http://www.w3.org/2000/svg">
<symbol id="ar_down" viewBox="0 0 6 4">  <path id="Rectangle_567_copy" data-name="Rectangle 567 copy" class="cls-1" d="M598.762,341l3.059,3.2-0.765.8L598,341.8Zm4.476,0-3.059,3.2,0.765,0.8L604,341.8Z" transform="translate(-598 -341)"/> </symbol>
<symbol id="ar_up" viewBox="0 0 6 4">  <path id="Rectangle_567_copy" data-name="Rectangle 567 copy" class="cls-1" d="M716.238,345l-3.059-3.2,0.765-.8L717,344.2Zm-4.476,0,3.059-3.2-0.765-.8L711,344.2Z" transform="translate(-711 -341)"/> </symbol>
<symbol id="menu" viewBox="0 0 98.55 94.83"><title>menu</title><path d="M92.69,2.75H5.86a3,3,0,0,0-3,3V19.08a3,3,0,0,0,3,3H92.69a3,3,0,0,0,3-3V5.75A3,3,0,0,0,92.69,2.75Z"/><path d="M92.69,37.75H5.86a3,3,0,0,0-3,3V54.08a3,3,0,0,0,3,3H92.69a3,3,0,0,0,3-3V40.75A3,3,0,0,0,92.69,37.75Z"/><path d="M92.69,72.75H5.86a3,3,0,0,0-3,3V89.08a3,3,0,0,0,3,3H92.69a3,3,0,0,0,3-3V75.75A3,3,0,0,0,92.69,72.75Z"/></symbol>
<symbol id="star" viewBox="0 0 19.65 18.4"><title>star</title><path d="M19.21,7.18c0-.28-.22-.45-.64-.52l-5.73-.83L10.27.67C10.12.36,9.94.2,9.71.2s-.42.16-.56.47L6.58,5.83.85,6.66c-.43.07-.64.24-.64.52a.83.83,0,0,0,.28.54l4.16,4-1,5.67a1.43,1.43,0,0,0,0,.23.65.65,0,0,0,.12.4.41.41,0,0,0,.36.16,1,1,0,0,0,.46-.13l5.13-2.68,5.12,2.68a1,1,0,0,0,.46.13.41.41,0,0,0,.35-.16.65.65,0,0,0,.12-.4c0-.1,0-.18,0-.23l-1-5.67,4.15-4A.79.79,0,0,0,19.21,7.18Z"/></symbol>
<symbol id="up" viewBox="0 0 293 171"><path d="M286 138L153 5a9 9 0 0 0-13 0L7 138a9 9 0 0 0 0 13l14 15a9 9 0 0 0 13 0L147 53l112 113a9 9 0 0 0 13 0l14-15a9 9 0 0 0 0-13z"/></symbol>
</svg>