<svg version="1.0" xmlns="http://www.w3.org/2000/svg" width="133.333" height="133.333" viewBox="0 0 100 100"><path d="M9.7 15.8C8.2 17.5 8 21.3 8 49.7c0 31 .1 32 2 33.8 2 1.8 4.5 1.9 38.3 1.9 19.9 0 37.4-.4 38.9-.7 1.9-.5 3-1.6 3.5-3.5.3-1.5.6-16.3.6-33 0-27.7-.1-30.4-1.8-32.2-1.7-1.9-3.1-2-40-2-35.7 0-38.3.1-39.8 1.8zM87 21.9v3.9H12v-3.2c0-1.8.3-3.6.7-3.9.3-.4 17.2-.7 37.5-.7H87v3.9zm.1 15.8c.1 23 0 42.5-.3 42.9-.3.3-44.4.6-67.5.4H12V30h75l.1 7.7z"/><path d="M14.2 21.7c.2 1 1 1.8 1.8 1.8 2.2 0 1.8-2.9-.3-3.3-1.4-.3-1.8.1-1.5 1.5zm6 0c.4 2.1 3.3 2.5 3.3.3 0-.8-.8-1.6-1.8-1.8-1.4-.3-1.8.1-1.5 1.5zm6 0c.4 2.1 3.3 2.5 3.3.3 0-.8-.8-1.6-1.8-1.8-1.4-.3-1.8.1-1.5 1.5zm42.7 21c-1.8 2.7-3.4 5-3.6 5.2-.2.3-1.3-.5-2.6-1.7-2.7-2.6-4.7-2.8-4.7-.6 0 2 6.8 8.7 8.1 7.9 1.7-1.1 8.9-12.3 8.9-13.9 0-3.1-2.9-1.5-6.1 3.1zM25 43.8c-1.2.4-1.4 3.1-.2 3.3.4.1 5.8.3 11.9.4 8.1.1 11.6-.2 12.3-1.1.8-.9.7-1.4-.1-2-1.2-.7-22-1.2-23.9-.6zm45 17.4c-1.8 2.4-3.5 5-4 5.8-.7 1.2-1.3 1-3.6-1.3-2.1-2.1-3-2.5-4.1-1.6-1.1 1-1 1.6.9 3.7 3.3 3.7 6.2 6.1 6.9 5.7 1.3-.9 8.9-12.7 8.9-14 0-3.1-2.1-2.4-5 1.7zm-45.7 3.5c-.9 2.4.5 2.7 11.5 2.8 11.2.2 15.4-.7 13.3-2.8-1.8-1.8-24.1-1.8-24.8 0z"/></svg>